<svg width="120" height="60" viewBox="0 0 120 60" fill="none" xmlns="http://www.w3.org/2000/svg">
<path d="M19.0893 15.081L19.5118 12.6859H9.21021C8.13288 12.6859 7.09775 13.5568 6.88651 14.6385L2.91518 37.2903C2.71098 38.386 3.42918 39.278 4.5206 39.278H15.7728L16.1953 36.8899H6.52039L8.30889 26.7194H16.1671L16.5755 24.3594H8.72435L10.3509 15.088H19.0893" fill="#005A86"/>
<path d="M24.1662 39.6713C19.6245 39.6713 16.991 35.5764 18.181 28.8547C19.378 22.0064 23.4198 18.0661 28.0389 18.0661C30.5739 18.0661 31.8272 18.8809 32.3764 19.4568L31.2216 21.4235C30.4199 20.7301 29.3804 20.3727 28.3206 20.4261C24.5464 20.4261 22.4762 23.8678 21.6242 28.7353C20.744 33.7222 21.9129 37.1638 25.2646 37.1638C26.687 37.1638 27.7291 36.7003 28.5952 36.1594L29.074 38.2877C28.1305 39.0181 26.4758 39.6713 24.1662 39.6713Z" fill="#005A86"/>
<path d="M38.4603 39.6713C32.799 39.6713 31.1584 34.9935 32.2286 28.8898C33.3201 22.6667 36.6295 18.0661 42.2134 18.0661C47.9169 18.0661 49.5294 22.6667 48.4309 28.8828C47.3606 34.9935 44.0793 39.6713 38.4603 39.6713ZM41.8683 20.2294C37.904 20.2294 36.3549 24.6755 35.6156 28.8898C34.8762 33.1041 34.9818 37.3184 38.8687 37.3184C42.833 37.3184 44.3117 33.0619 45.044 28.8898C45.7833 24.7177 45.8326 20.2294 41.8754 20.2294H41.8683Z" fill="#005A86"/>
<path d="M74.0054 39.6713C68.6187 39.6713 66.5274 37.3184 67.1963 33.5255C68.1681 27.9978 73.604 26.3753 80.1526 25.722L80.3779 24.4437C80.9412 21.2338 79.1808 20.3067 76.5262 20.3067C74.5265 20.3067 72.5478 21.0442 71.2874 21.6272L70.8297 19.6113C72.1394 18.9581 74.6039 18.0661 77.4557 18.0661C81.3073 18.0661 84.4056 19.7307 83.5113 24.83L81.1595 38.2034C79.4203 39.0954 76.8994 39.6784 74.0054 39.6784V39.6713ZM79.8497 27.4569C74.4983 28.1172 71.1888 29.234 70.4424 33.4482C69.9143 36.4685 71.5409 37.7047 74.625 37.7047C75.9277 37.7047 77.2445 37.4729 78.1739 37.0023L79.8497 27.4569Z" fill="#005A86"/>
<path d="M95.4394 39.285L98.0659 24.3243C98.4109 22.3998 97.9743 20.2716 94.4325 20.2716C92.5102 20.2716 91.5385 20.5385 90.3766 21.002L87.1657 39.285H83.7788L87.2502 19.5341C89.25 18.6491 91.7779 18.0661 95.0873 18.0661C100.861 18.0661 101.988 21.276 101.474 24.247L98.8334 39.285H95.4394Z" fill="#005A86"/>
<path d="M116.092 44.0752H1.71814L1.83078 43.3869H116.183L116.092 44.0752Z" fill="#ADCD39"/>
<path d="M60.4154 18.1855C58.3734 18.1855 57.1482 18.6069 56.0145 19.1478L57.796 8.99133L54.064 11.1547L49.3181 38.2034C50.4095 39.0181 52.4445 39.6783 55.2611 39.6783C61.4153 39.6783 65.4782 35.1901 66.6541 28.5105C67.7596 22.2031 65.1895 18.1855 60.4154 18.1855ZM63.232 28.6158C62.3166 33.8767 59.9929 37.4729 55.7188 37.4729C54.6414 37.4729 53.5852 37.3605 52.8881 36.9672L55.6836 21.002C56.7668 20.4246 57.9839 20.1435 59.2113 20.1873C63.1334 20.1873 64.0347 24.0574 63.232 28.6158Z" fill="#005A86"/>
<path d="M119.415 18.4524H115.874L106.783 28.1171H106.706L109.029 14.9475C111.325 1.91131 97.3195 -0.835001 82.6874 1.41262C76.2443 2.49161 69.9554 4.34292 63.9573 6.92631C63.9573 6.92631 75.4207 2.89465 85.5181 2.3187C98.2631 1.58822 108.248 3.52679 105.333 17.0827L101.432 39.292H104.741L106.628 28.5456H106.706L112.754 39.292H116.606L109.846 28.1944L119.415 18.4524Z" fill="#005A86"/>
<path d="M3.59818 50.8884L2.1406 59.1624H0.936544L2.38707 50.8954H0.584473L0.725267 50.0736H5.54162L5.40078 50.8954H3.59818" fill="#005A86"/>
<path d="M9.25947 59.1554L10.1467 54.1123C10.2734 53.3748 10.0763 52.7075 8.94965 52.7075C8.42154 52.7075 7.97793 52.7988 7.49912 53.0587L6.42885 59.1554H5.27405L7.09779 48.7882H8.25255L7.61885 52.4055C8.1463 52.133 8.72906 51.9841 9.32286 51.97C11.1255 51.97 11.4846 53.0657 11.3086 54.0631L10.4143 59.1554H9.25947Z" fill="#005A86"/>
<path d="M13.2097 56.0438C13.0548 57.6523 13.6674 58.446 14.9419 58.446C15.7446 58.446 16.3502 58.2423 16.7586 58.0316L16.9346 58.8042C16.4487 59.0641 15.6672 59.2888 14.7025 59.2888C12.8436 59.2888 11.7451 58.1159 12.1957 55.5803C12.6182 53.157 14.0265 51.9068 15.6953 51.9068C17.3923 51.9068 18.2232 53.0166 17.7796 55.3906L13.2027 56.0438H13.2097ZM15.5263 52.6584C14.4983 52.6584 13.5899 53.4872 13.2731 55.4187L16.7586 54.906C17.0402 53.2905 16.5332 52.6584 15.5263 52.6584Z" fill="#005A86"/>
<path d="M25.0957 55.4187L24.6873 55.3836L24.0254 59.1553H22.8424L24.3774 50.4388C25.1089 50.0903 25.9118 49.9172 26.7222 49.9331C28.8558 49.9331 29.6092 51.085 29.3275 52.6864C29.0459 54.3019 27.7151 55.6856 25.0957 55.4257V55.4187ZM26.5392 50.6636C26.0603 50.6636 25.6871 50.7549 25.4829 50.8321L24.821 54.639L25.2083 54.6741C27.0813 54.8638 27.9334 53.9928 28.1657 52.6724C28.3981 51.3519 27.9263 50.6636 26.5462 50.6636H26.5392Z" fill="#005A86"/>
<path d="M31.6019 59.2888C29.7711 59.2888 29.0529 58.4811 29.2782 57.1817C29.6092 55.2993 31.4681 54.7444 33.7002 54.5197L33.7847 54.0842C33.9748 52.9885 33.3693 52.6724 32.468 52.6724C31.7779 52.6724 31.109 52.9253 30.6795 53.1219L30.5175 52.4336C31.2247 52.0924 31.9992 51.9124 32.7848 51.9068C34.0946 51.9068 35.1578 52.4687 34.848 54.2176L34.0452 58.7831C33.4538 59.0922 32.5947 59.2888 31.6019 59.2888ZM33.6016 55.1167C31.7709 55.3414 30.6442 55.7207 30.3907 57.1606C30.2006 58.1931 30.764 58.6146 31.8131 58.6146C32.2638 58.6146 32.7144 58.5373 33.0313 58.3757L33.6016 55.1167Z" fill="#005A86"/>
<path d="M39.5446 59.1554L40.4389 54.042C40.5586 53.3818 40.4107 52.6583 39.1996 52.6583C38.5448 52.6583 38.2138 52.7496 37.8125 52.9112L36.714 59.1624H35.5592L36.7422 52.4125C37.5881 52.0567 38.5001 51.8843 39.4179 51.9068C41.3965 51.9068 41.7838 53.0025 41.6008 54.0139L40.7065 59.1554H39.5446Z" fill="#005A86"/>
<path d="M51.7474 59.1624L51.3742 56.4372H48.2689L46.91 59.1624H45.8044L50.4659 50.0736H51.5432L52.9937 59.1624H51.7474ZM50.8461 52.265C50.7545 51.5486 50.7757 51.1693 50.7757 51.1693H50.7546C50.7546 51.1693 50.6348 51.5486 50.2828 52.265L48.6069 55.7137H51.2897L50.8461 52.265Z" fill="#005A86"/>
<path d="M56.6835 52.7637L55.5569 59.1554H54.4021L55.5287 52.7637H54.7049L54.8387 52.0402H55.6555L55.8315 51.0358C56.0779 49.6311 57.0778 48.718 58.6199 48.7882L58.4861 49.5327C57.782 49.5679 57.1834 49.898 57.0074 50.9094L56.8103 52.0402H58.0496L57.9158 52.7637H56.6835Z" fill="#005A86"/>
<path d="M61.9786 52.8058C61.4363 52.6313 60.847 52.6768 60.338 52.9322L59.2395 59.1554H58.0847L59.2677 52.4195C60.0281 52.0683 60.7323 51.8787 62.4082 51.9208L61.9786 52.8058Z" fill="#005A86"/>
<path d="M62.4011 59.1624L63.6545 52.0332H64.8093L63.5559 59.1624H62.4011ZM64.4713 50.6636C64.084 50.6636 63.8376 50.3686 63.8939 50.0315C63.9643 49.6733 64.3164 49.3782 64.6966 49.3782C65.0698 49.3782 65.3304 49.6733 65.2599 50.0315C65.1966 50.3686 64.8375 50.6636 64.4713 50.6636Z" fill="#005A86"/>
<path d="M67.7385 59.2888C66.1894 59.2888 65.288 57.8841 65.6964 55.5873C66.1049 53.2484 67.485 51.9068 69.0623 51.9068C69.9354 51.9068 70.3579 52.1878 70.5409 52.3774L70.1537 53.0517C69.8797 52.814 69.5232 52.693 69.1608 52.7145C67.8722 52.7145 67.1611 53.8875 66.8724 55.5522C66.5766 57.2519 66.9709 58.4319 68.1187 58.4319C68.6046 58.4319 68.9637 58.2704 69.2594 58.0878L69.4213 58.8112C69.0974 59.0641 68.5342 59.2888 67.7385 59.2888Z" fill="#005A86"/>
<path d="M72.921 59.2888C71.0832 59.2888 70.365 58.4811 70.5974 57.1817C70.9283 55.2993 72.7872 54.7444 75.0264 54.5197L75.0968 54.0842C75.2939 52.9885 74.6884 52.6724 73.78 52.6724C73.1613 52.6966 72.5545 52.8497 71.9986 53.1219L71.8366 52.4336C72.5437 52.0917 73.3183 51.9117 74.104 51.9068C75.4207 51.9068 76.4769 52.4687 76.1671 54.2176L75.3644 58.7831C74.7729 59.0922 73.9139 59.2888 72.921 59.2888ZM74.9208 55.1167C73.09 55.3414 71.9634 55.7207 71.7099 57.1606C71.5197 58.1931 72.0831 58.6146 73.1322 58.6146C73.5509 58.624 73.9665 58.5425 74.3504 58.3757L74.9208 55.1167Z" fill="#005A86"/>
<path d="M80.8637 59.1554L81.758 54.042C81.8777 53.3818 81.7298 52.6584 80.5187 52.6584C79.8568 52.6584 79.5259 52.7497 79.1316 52.9112L78.0331 59.1624H76.8783L78.0612 52.4125C78.7513 52.1035 79.6104 51.9068 80.737 51.9068C82.7086 51.9068 83.1029 53.0025 82.9198 54.0139L82.0185 59.1554H80.8637Z" fill="#005A86"/>
<path d="M87.9543 58.7831L89.419 50.4388C90.1844 50.0873 91.0199 49.9144 91.8623 49.9331C93.848 49.9331 94.7423 50.8883 94.5099 52.2088C94.4122 52.7359 94.1556 53.2207 93.7743 53.5984C93.3931 53.9762 92.9054 54.229 92.3764 54.3229V54.351C93.1861 54.5056 94.3127 55.3133 94.0663 56.697C93.7424 58.5232 92.2003 59.2888 90.3343 59.2888C89.5105 59.3291 88.6902 59.1548 87.9543 58.7831ZM90.4188 54.6741H89.8133L89.1795 58.3055C89.4964 58.4459 89.8626 58.5162 90.4188 58.5162C91.6018 58.5162 92.6087 58.0385 92.8411 56.711C93.0875 55.3063 92.3764 54.6741 90.4188 54.6741ZM91.7286 50.6354C91.2498 50.6354 90.8836 50.7057 90.4893 50.8321L89.9259 54.0771H90.5104C92.3764 54.0771 93.1157 53.4941 93.327 52.3071C93.5241 51.1903 92.9608 50.6354 91.7286 50.6354Z" fill="#005A86"/>
<path d="M97.3618 59.2888C95.517 59.2888 94.7987 58.4811 95.0311 57.1817C95.362 55.2993 97.221 54.7444 99.4601 54.5197L99.5305 54.0842C99.7277 52.9885 99.1292 52.6724 98.2208 52.6724C97.5976 52.6967 96.9862 52.8498 96.4253 53.1219L96.2703 52.4336C96.9774 52.0919 97.7521 51.912 98.5377 51.9068C99.8545 51.9068 100.911 52.4687 100.601 54.2176L99.8052 58.7831C99.2066 59.0922 98.3406 59.2888 97.3618 59.2888ZM99.3545 55.1167C97.5237 55.3414 96.3971 55.7207 96.1366 57.1606C95.9605 58.1931 96.5098 58.6146 97.566 58.6146C98.0166 58.6146 98.4602 58.5373 98.7841 58.3757L99.3545 55.1167Z" fill="#005A86"/>
<path d="M105.438 59.1554L106.34 54.042C106.452 53.3818 106.304 52.6584 105.093 52.6584C104.431 52.6584 104.107 52.7497 103.706 52.9112L102.608 59.1624H101.453L102.636 52.4125C103.326 52.1035 104.185 51.9068 105.311 51.9068C107.283 51.9068 107.677 53.0025 107.494 54.0139L106.593 59.1554H105.438Z" fill="#005A86"/>
<path d="M112.106 59.1554L110.043 55.4819H110.015L109.374 59.1554H108.241L110.064 48.7882H111.191L110.043 55.3414H110.064L113.177 52.0402H114.381L111.114 55.3625L113.423 59.1554H112.106Z" fill="#005A86"/>
</svg>
